<?xml version="1.0" ?><svg id="Icons_PersonInWheelchair" overflow="hidden" version="1.1" viewBox="0 0 96 96" xmlns="http://www.w3.org/2000/svg" xmlns:xlink="http://www.w3.org/1999/xlink"><circle cx="37.5" cy="14" r="8"/><path d=" M 64.6 69.3 C 61.9 78.9 53 86 42.5 86 C 29.8 86 19.5 75.7 19.5 63 C 19.5 62.5 19.5 62.1 19.5 61.6 L 17.1 53.8 C 16.1 56.7 15.5 59.7 15.5 62.9 C 15.5 77.8 27.6 89.9 42.5 89.9 C 53.5 89.9 63 83.3 67.2 73.8 L 64.6 69.3 Z"/><path d=" M 80 72 L 68 51 C 67.3 49.8 66 49 64.5 49 L 48.4 49 L 46.4 30.6 C 45.6 26.2 41.5 23.3 37.1 24.1 C 36.1 24.3 35.2 24.6 34.4 25.1 L 18.5 34.5 C 16.9 35.4 16.2 37.4 16.7 39.1 L 21.7 55.1 C 22.2 56.8 23.8 57.9 25.5 57.9 C 25.9 57.9 26.3 57.8 26.7 57.7 C 28.8 57 30 54.8 29.3 52.7 L 25.2 39.7 L 31.1 36.2 L 33.6 50.3 C 34.3 54.2 37.7 56.9 41.5 56.9 L 41.5 56.9 L 62.2 56.9 L 73 76 C 73.7 77.3 75.1 78 76.5 78 C 77.2 78 77.9 77.8 78.5 77.5 C 80.4 76.4 81.1 73.9 80 72 Z"/></svg>