<svg width="60" height="24" viewBox="0 0 90 36" fill="none" xmlns="http://www.w3.org/2000/svg">
<path d="M8.21426 5.206C8.21426 5.158 8.21426 5.11 8.21426 5.062C8.21426 4.306 8.03426 3.658 7.67426 3.118C7.32626 2.566 6.73826 2.29 5.91026 2.29C4.18226 2.29 3.31826 3.832 3.31826 6.916C3.31826 8.308 3.55826 9.382 4.03826 10.138C4.53026 10.882 5.23826 11.254 6.16226 11.254C7.08626 11.254 8.11826 10.81 9.25826 9.922C9.49826 10.09 9.72626 10.318 9.94226 10.606C10.1583 10.882 10.2963 11.146 10.3563 11.398C9.81626 11.938 9.13226 12.382 8.30426 12.73C7.47626 13.078 6.61826 13.252 5.73026 13.252C4.84226 13.252 4.08026 13.072 3.44426 12.712C2.80826 12.352 2.31026 11.86 1.95026 11.236C1.25426 10.048 0.906258 8.602 0.906258 6.898C0.906258 4.774 1.38026 3.172 2.32826 2.092C3.28826 1 4.46426 0.454 5.85626 0.454C7.24826 0.454 8.35226 0.808 9.16826 1.516C9.99626 2.212 10.4103 3.058 10.4103 4.054C10.4103 4.906 9.97826 5.332 9.11426 5.332C8.80226 5.332 8.50226 5.29 8.21426 5.206ZM21.7403 0.705999V8.59C21.7403 10.078 21.3263 11.23 20.4983 12.046C19.6703 12.85 18.5243 13.252 17.0603 13.252C15.6083 13.252 14.4683 12.85 13.6403 12.046C12.8123 11.23 12.3983 10.078 12.3983 8.59V0.723999L12.5063 0.616H13.3703C13.8263 0.616 14.1563 0.735999 14.3603 0.975999C14.5763 1.204 14.6843 1.57 14.6843 2.074V8.608C14.6843 10.48 15.4763 11.416 17.0603 11.416C18.6443 11.416 19.4363 10.48 19.4363 8.608V0.705999C19.7363 0.646 20.1203 0.616 20.5883 0.616C21.0563 0.616 21.4403 0.646 21.7403 0.705999ZM23.5384 11.902C23.6224 11.194 23.9344 10.618 24.4744 10.174C25.7224 10.966 26.9284 11.362 28.0924 11.362C28.7164 11.362 29.2024 11.224 29.5504 10.948C29.8984 10.672 30.0724 10.312 30.0724 9.868C30.0964 9.16 29.6164 8.59 28.6324 8.158L26.5084 7.258C24.8404 6.514 24.0064 5.446 24.0064 4.054C24.0064 3.022 24.4024 2.164 25.1944 1.48C25.9864 0.795999 27.0184 0.454 28.2904 0.454C29.5744 0.454 30.8644 0.778 32.1604 1.426C32.1244 2.134 31.8604 2.722 31.3684 3.19C30.2164 2.614 29.1664 2.326 28.2184 2.326C27.6304 2.326 27.1684 2.47 26.8324 2.758C26.5084 3.034 26.3464 3.37 26.3464 3.766C26.3464 4.354 26.7844 4.834 27.6604 5.206L29.7844 6.106C31.5844 6.886 32.4844 8.032 32.4844 9.544C32.4844 10.648 32.0944 11.542 31.3144 12.226C30.5344 12.91 29.3764 13.252 27.8404 13.252C26.3164 13.252 24.8824 12.802 23.5384 11.902ZM38.7424 2.596L38.7604 3.928V13C38.4484 13.06 38.0644 13.09 37.6084 13.09C37.1524 13.09 36.7744 13.06 36.4744 13V2.596L35.3944 2.614H33.3604C33.3004 2.338 33.2704 2.026 33.2704 1.678C33.2704 1.318 33.3004 0.993999 33.3604 0.705999H41.8744C41.9584 1.006 42.0004 1.324 42.0004 1.66C42.0004 1.984 41.8984 2.224 41.6944 2.38C41.5024 2.536 41.1904 2.614 40.7584 2.614H39.8404L38.7604 2.596H38.7424ZM48.0308 2.254C46.1948 2.254 45.2768 3.79 45.2768 6.862C45.2768 9.922 46.1948 11.452 48.0308 11.452C49.8788 11.452 50.8028 9.922 50.8028 6.862C50.8028 3.79 49.8788 2.254 48.0308 2.254ZM44.8088 12.154C43.5248 11.062 42.8828 9.298 42.8828 6.862C42.8828 4.414 43.5248 2.644 44.8088 1.552C45.6848 0.819999 46.7588 0.454 48.0308 0.454C49.3028 0.454 50.3888 0.819999 51.2888 1.552C52.5608 2.644 53.1968 4.414 53.1968 6.862C53.1968 9.298 52.5608 11.062 51.2888 12.154C50.3888 12.886 49.3028 13.252 48.0308 13.252C46.7588 13.252 45.6848 12.886 44.8088 12.154ZM55.1792 12.964L56.1332 0.723999C56.5412 0.651999 57.0452 0.616 57.6452 0.616C58.2572 0.616 58.7552 0.651999 59.1392 0.723999L60.5972 5.872C60.9212 7.012 61.1552 8.02 61.2992 8.896H61.4072C61.5512 8.02 61.7852 7.012 62.1092 5.872L63.5672 0.723999C63.9752 0.651999 64.4732 0.616 65.0612 0.616C65.6492 0.616 66.1472 0.651999 66.5552 0.723999L67.5092 12.964C67.2092 13.048 66.8432 13.09 66.4112 13.09C65.9912 13.09 65.6312 13.066 65.3312 13.018L64.9712 7.042C64.8992 5.938 64.8512 4.654 64.8272 3.19H64.7192L62.5232 11.146C62.1392 11.206 61.7432 11.236 61.3352 11.236C60.9272 11.236 60.5432 11.206 60.1832 11.146L57.9872 3.19H57.8792C57.8192 4.978 57.7712 6.262 57.7352 7.042L57.3572 13.018C57.0692 13.066 56.7092 13.09 56.2772 13.09C55.8452 13.09 55.4792 13.048 55.1792 12.964ZM72.5017 10.066L72.4837 11.128C72.9877 11.104 73.4017 11.092 73.7257 11.092H78.1897C78.1897 11.464 78.1777 11.746 78.1537 11.938C78.0217 12.67 77.5297 13.036 76.6777 13.036H71.5477C71.1397 13.036 70.8157 12.916 70.5757 12.676C70.3477 12.424 70.2337 12.082 70.2337 11.65V0.831999L70.3597 0.705999H77.7937C77.8537 0.993999 77.8837 1.294 77.8837 1.606C77.8837 1.906 77.8237 2.248 77.7037 2.632H72.4837L72.5017 3.856V5.872C72.7897 5.86 73.1737 5.854 73.6537 5.854H76.7857C76.8697 6.142 76.9117 6.46 76.9117 6.808C76.9117 7.144 76.8697 7.456 76.7857 7.744H73.6537C73.1737 7.744 72.7897 7.738 72.5017 7.726V10.066ZM88.8697 4.396C88.8697 5.2 88.6477 5.896 88.2037 6.484C87.7717 7.06 87.2377 7.462 86.6017 7.69C87.1897 7.894 87.6277 8.416 87.9157 9.256L88.6177 11.146C88.8457 11.758 89.1277 12.19 89.4637 12.442C89.1277 12.91 88.6117 13.144 87.9157 13.144C87.5197 13.144 87.2197 13.042 87.0157 12.838C86.8237 12.622 86.6437 12.268 86.4757 11.776L85.6657 9.562C85.5097 9.13 85.3057 8.8 85.0537 8.572C84.8137 8.344 84.4477 8.23 83.9557 8.23H82.7677V13C82.4677 13.06 82.0837 13.09 81.6157 13.09C81.1597 13.09 80.7877 13.06 80.4997 13V0.795999L80.6257 0.688C82.5217 0.64 83.8657 0.616 84.6577 0.616C85.9417 0.616 86.9617 0.94 87.7177 1.588C88.4857 2.236 88.8697 3.172 88.8697 4.396ZM82.7677 2.38V6.43C83.6317 6.406 84.2137 6.394 84.5137 6.394C85.8457 6.394 86.5117 5.728 86.5117 4.396C86.5117 3.064 85.8457 2.398 84.5137 2.398C83.7337 2.398 83.1517 2.392 82.7677 2.38ZM30.3648 24.254C28.5288 24.254 27.6108 25.79 27.6108 28.862C27.6108 31.922 28.5288 33.452 30.3648 33.452C32.2128 33.452 33.1368 31.922 33.1368 28.862C33.1368 25.79 32.2128 24.254 30.3648 24.254ZM27.1428 34.154C25.8588 33.062 25.2168 31.298 25.2168 28.862C25.2168 26.414 25.8588 24.644 27.1428 23.552C28.0188 22.82 29.0928 22.454 30.3648 22.454C31.6368 22.454 32.7228 22.82 33.6228 23.552C34.8948 24.644 35.5308 26.414 35.5308 28.862C35.5308 31.298 34.8948 33.062 33.6228 34.154C32.7228 34.886 31.6368 35.252 30.3648 35.252C29.0928 35.252 28.0188 34.886 27.1428 34.154ZM47.0352 22.616L47.1432 22.724V34.964C46.8072 35.048 46.3692 35.09 45.8292 35.09C45.2892 35.09 44.8152 35.06 44.4072 35L40.9692 27.872C40.6692 27.26 40.3032 26.426 39.8712 25.37L39.7992 25.388C39.9192 26.888 39.9792 28.484 39.9792 30.176V35C39.6672 35.06 39.3072 35.09 38.8992 35.09C38.5032 35.09 38.1552 35.06 37.8552 35V22.742C38.1912 22.658 38.6232 22.616 39.1512 22.616C39.6912 22.616 40.1592 22.646 40.5552 22.706L43.9572 29.816C44.2692 30.464 44.6652 31.346 45.1452 32.462L45.1992 32.444C45.0792 30.74 45.0192 29.132 45.0192 27.62V24.02C45.0192 23.516 45.1152 23.156 45.3072 22.94C45.4992 22.724 45.8232 22.616 46.2792 22.616H47.0352ZM54.101 33.056H57.503C57.503 33.452 57.485 33.74 57.449 33.92C57.317 34.664 56.819 35.036 55.955 35.036H51.509C51.101 35.036 50.777 34.916 50.537 34.676C50.297 34.424 50.177 34.082 50.177 33.65V22.724L50.303 22.616H51.149C51.605 22.616 51.941 22.73 52.157 22.958C52.373 23.186 52.481 23.558 52.481 24.074V33.11C53.057 33.074 53.597 33.056 54.101 33.056ZM61.8928 26.414L63.3688 22.706C63.6208 22.646 63.9508 22.616 64.3588 22.616C64.7668 22.616 65.1208 22.67 65.4208 22.778L65.5288 22.922L62.0728 31.148V35C61.7728 35.06 61.3888 35.09 60.9208 35.09C60.4528 35.09 60.0748 35.06 59.7868 35V31.076L56.3308 22.976C56.8228 22.7 57.2608 22.562 57.6448 22.562C58.0288 22.562 58.3108 22.634 58.4908 22.778C58.6708 22.922 58.8328 23.168 58.9768 23.516L60.1828 26.468C60.4828 27.236 60.7408 28.028 60.9568 28.844H61.0648C61.2208 28.208 61.4968 27.398 61.8928 26.414Z" fill="black"/>
</svg>
