<svg width="30" height="19" viewBox="0 0 30 19" fill="none" xmlns="http://www.w3.org/2000/svg">
<path d="M1.94754 6.098C1.55554 6.098 1.25454 5.937 1.04454 5.615C0.834543 5.28833 0.729543 4.84267 0.729543 4.278C0.729543 3.71333 0.862543 3.27 1.12854 2.948C1.39921 2.626 1.72354 2.465 2.10154 2.465C2.33954 2.465 2.58454 2.53033 2.83654 2.661V0.897L2.87854 0.848H3.21454C3.38721 0.848 3.50854 0.89 3.57854 0.974C3.64854 1.05333 3.68354 1.191 3.68354 1.387V5.006C3.68354 5.29533 3.74888 5.496 3.87954 5.608C3.85621 5.68733 3.81421 5.77133 3.75354 5.86C3.69754 5.944 3.63921 6.00933 3.57854 6.056C3.28454 6.014 3.07688 5.874 2.95554 5.636C2.68021 5.944 2.34421 6.098 1.94754 6.098ZM2.17154 5.384C2.42821 5.384 2.64988 5.258 2.83654 5.006V3.354C2.59854 3.20933 2.39088 3.137 2.21354 3.137C2.03621 3.137 1.89154 3.23967 1.77954 3.445C1.67221 3.64567 1.61854 3.93033 1.61854 4.299C1.61854 4.66767 1.66988 4.94067 1.77254 5.118C1.87521 5.29533 2.00821 5.384 2.17154 5.384ZM7.31096 4.544H5.35096C5.36496 4.81933 5.42563 5.034 5.53296 5.188C5.64496 5.33733 5.83863 5.412 6.11396 5.412C6.3893 5.412 6.69496 5.33033 7.03096 5.167C7.16163 5.293 7.24563 5.47033 7.28297 5.699C6.90963 5.965 6.4593 6.098 5.93196 6.098C5.4093 6.098 5.03363 5.92767 4.80496 5.587C4.5763 5.24633 4.46196 4.80533 4.46196 4.264C4.46196 3.72267 4.58796 3.28167 4.83996 2.941C5.09196 2.60033 5.4513 2.43 5.91796 2.43C6.3893 2.43 6.75096 2.57233 7.00296 2.857C7.25497 3.137 7.38097 3.49167 7.38097 3.921C7.38097 4.13567 7.35763 4.34333 7.31096 4.544ZM5.95996 3.06C5.5773 3.06 5.37196 3.34933 5.34396 3.928H6.56196V3.844C6.56196 3.61067 6.51296 3.42167 6.41496 3.277C6.31696 3.13233 6.1653 3.06 5.95996 3.06ZM8.35413 6V3.137L7.75213 3.151C7.7288 3.04367 7.71713 2.941 7.71713 2.843C7.71713 2.745 7.7288 2.63767 7.75213 2.521L8.31213 2.528C8.28413 2.276 8.27013 2.087 8.27013 1.961C8.27013 1.62967 8.3728 1.35667 8.57813 1.142C8.78346 0.927333 9.05413 0.82 9.39013 0.82C9.7308 0.82 10.0575 0.878333 10.3701 0.995C10.3701 1.24233 10.3048 1.436 10.1741 1.576C9.95946 1.51067 9.77046 1.478 9.60713 1.478C9.4438 1.478 9.3178 1.52467 9.22913 1.618C9.14046 1.71133 9.09613 1.842 9.09613 2.01C9.09613 2.178 9.11013 2.353 9.13813 2.535L10.0971 2.521C10.1205 2.60967 10.1321 2.717 10.1321 2.843C10.1321 2.969 10.1205 3.07167 10.0971 3.151L9.20113 3.137V6C9.0518 6.02333 8.90713 6.035 8.76713 6.035C8.6318 6.035 8.49413 6.02333 8.35413 6ZM11.9005 3.207V6C11.7698 6.02333 11.6275 6.035 11.4735 6.035C11.3195 6.035 11.1725 6.02333 11.0325 6V3.529C11.0325 3.277 10.9275 3.151 10.7175 3.151H10.6335C10.6102 3.07167 10.5985 2.97133 10.5985 2.85C10.5985 2.72867 10.6102 2.62367 10.6335 2.535C10.8015 2.51633 10.9718 2.507 11.1445 2.507H11.2565C11.4572 2.507 11.6135 2.57 11.7255 2.696C11.8422 2.822 11.9005 2.99233 11.9005 3.207ZM10.8855 1.898C10.8388 1.79067 10.8155 1.67633 10.8155 1.555C10.8155 1.429 10.8388 1.31233 10.8855 1.205C11.0068 1.13967 11.1562 1.107 11.3335 1.107C11.5155 1.107 11.6602 1.13967 11.7675 1.205C11.8142 1.31233 11.8375 1.429 11.8375 1.555C11.8375 1.67633 11.8142 1.79067 11.7675 1.898C11.6602 1.96333 11.5085 1.996 11.3125 1.996C11.1212 1.996 10.9788 1.96333 10.8855 1.898ZM15.7451 3.655V5.209C15.7451 5.49367 15.7918 5.713 15.8851 5.867C15.7311 5.98833 15.5584 6.049 15.3671 6.049C15.1804 6.049 15.0521 6.00467 14.9821 5.916C14.9121 5.82733 14.8771 5.68967 14.8771 5.503V3.837C14.8771 3.627 14.8491 3.47767 14.7931 3.389C14.7371 3.29567 14.6368 3.249 14.4921 3.249C14.2261 3.249 13.9811 3.36567 13.7571 3.599V6C13.6264 6.02333 13.4841 6.035 13.3301 6.035C13.1761 6.035 13.0291 6.02333 12.8891 6V2.535L12.9381 2.493H13.2601C13.5261 2.493 13.6848 2.633 13.7361 2.913C14.0768 2.61433 14.4151 2.465 14.7511 2.465C15.0918 2.465 15.3414 2.57467 15.5001 2.794C15.6634 3.01333 15.7451 3.30033 15.7451 3.655ZM17.6974 3.207V6C17.5667 6.02333 17.4244 6.035 17.2704 6.035C17.1164 6.035 16.9694 6.02333 16.8294 6V3.529C16.8294 3.277 16.7244 3.151 16.5144 3.151H16.4304C16.407 3.07167 16.3954 2.97133 16.3954 2.85C16.3954 2.72867 16.407 2.62367 16.4304 2.535C16.5984 2.51633 16.7687 2.507 16.9414 2.507H17.0534C17.254 2.507 17.4104 2.57 17.5224 2.696C17.639 2.822 17.6974 2.99233 17.6974 3.207ZM16.6824 1.898C16.6357 1.79067 16.6124 1.67633 16.6124 1.555C16.6124 1.429 16.6357 1.31233 16.6824 1.205C16.8037 1.13967 16.953 1.107 17.1304 1.107C17.3124 1.107 17.457 1.13967 17.5644 1.205C17.611 1.31233 17.6344 1.429 17.6344 1.555C17.6344 1.67633 17.611 1.79067 17.5644 1.898C17.457 1.96333 17.3054 1.996 17.1094 1.996C16.918 1.996 16.7757 1.96333 16.6824 1.898ZM20.4858 2.521C20.5091 2.61433 20.5208 2.72167 20.5208 2.843C20.5208 2.95967 20.5091 3.06233 20.4858 3.151L19.6318 3.137V5.041C19.6318 5.251 19.7321 5.356 19.9328 5.356H20.3808C20.4275 5.496 20.4508 5.61967 20.4508 5.727C20.4508 5.83433 20.4438 5.916 20.4298 5.972C20.1358 6.014 19.8581 6.035 19.5968 6.035C19.0555 6.035 18.7848 5.762 18.7848 5.216V3.144L18.2598 3.151C18.2365 3.06233 18.2248 2.95967 18.2248 2.843C18.2248 2.72167 18.2365 2.61433 18.2598 2.521L18.7848 2.535V2.003C18.7848 1.807 18.8198 1.66933 18.8898 1.59C18.9598 1.506 19.0811 1.464 19.2538 1.464H19.5898L19.6318 1.513V2.535L20.4858 2.521ZM23.7992 4.544H21.8392C21.8532 4.81933 21.9139 5.034 22.0212 5.188C22.1332 5.33733 22.3269 5.412 22.6022 5.412C22.8776 5.412 23.1832 5.33033 23.5192 5.167C23.6499 5.293 23.7339 5.47033 23.7712 5.699C23.3979 5.965 22.9476 6.098 22.4202 6.098C21.8976 6.098 21.5219 5.92767 21.2932 5.587C21.0646 5.24633 20.9502 4.80533 20.9502 4.264C20.9502 3.72267 21.0762 3.28167 21.3282 2.941C21.5802 2.60033 21.9396 2.43 22.4062 2.43C22.8776 2.43 23.2392 2.57233 23.4912 2.857C23.7432 3.137 23.8692 3.49167 23.8692 3.921C23.8692 4.13567 23.8459 4.34333 23.7992 4.544ZM22.4482 3.06C22.0656 3.06 21.8602 3.34933 21.8322 3.928H23.0502V3.844C23.0502 3.61067 23.0012 3.42167 22.9032 3.277C22.8052 3.13233 22.6536 3.06 22.4482 3.06ZM25.7944 5.356H26.0254C26.0721 5.496 26.0954 5.61967 26.0954 5.727C26.0954 5.83433 26.0884 5.916 26.0744 5.972C25.8037 6.014 25.5844 6.035 25.4164 6.035C24.9124 6.035 24.6604 5.762 24.6604 5.216V0.897L24.7024 0.848H25.0384C25.2111 0.848 25.3324 0.89 25.4024 0.974C25.4724 1.05333 25.5074 1.191 25.5074 1.387V5.041C25.5074 5.251 25.6031 5.356 25.7944 5.356ZM29.4838 2.612L28.5808 5.895C28.4268 6.45967 28.2332 6.87267 27.9998 7.134C27.7712 7.4 27.4258 7.533 26.9638 7.533C26.7118 7.533 26.4645 7.491 26.2218 7.407C26.2218 7.38367 26.2218 7.344 26.2218 7.288C26.2218 7.23667 26.2358 7.155 26.2638 7.043C26.2965 6.93567 26.3432 6.84933 26.4038 6.784C26.5998 6.84933 26.7935 6.882 26.9848 6.882C27.3488 6.882 27.6008 6.63233 27.7408 6.133L27.7688 6.042C27.6008 6.03733 27.4655 6.00467 27.3628 5.944C27.2648 5.88333 27.1948 5.78067 27.1528 5.636L26.2778 2.598C26.4645 2.514 26.6418 2.472 26.8098 2.472C27.0292 2.472 27.1715 2.598 27.2368 2.85L27.6498 4.362C27.6638 4.404 27.7385 4.733 27.8738 5.349C27.8785 5.38167 27.8995 5.398 27.9368 5.398L28.6438 2.528C28.7512 2.50467 28.8818 2.493 29.0358 2.493C29.1898 2.493 29.3298 2.514 29.4558 2.556L29.4838 2.612ZM5.7477 12.25L5.7577 13.27V14.05H8.0777C8.1177 14.21 8.1377 14.3867 8.1377 14.58C8.1377 14.7667 8.1177 14.94 8.0777 15.1H5.7577V18C5.58436 18.0333 5.37103 18.05 5.1177 18.05C4.87103 18.05 4.66103 18.0333 4.4877 18V11.23L4.5577 11.17H8.6377C8.6777 11.31 8.6977 11.4767 8.6977 11.67C8.6977 12.0633 8.46436 12.26 7.9977 12.26H6.6177C6.21103 12.26 5.92103 12.2567 5.7477 12.25ZM14.4111 13.22C14.4111 13.6667 14.2878 14.0533 14.0411 14.38C13.8011 14.7 13.5045 14.9233 13.1511 15.05C13.4778 15.1633 13.7211 15.4533 13.8811 15.92L14.2711 16.97C14.3978 17.31 14.5545 17.55 14.7411 17.69C14.5545 17.95 14.2678 18.08 13.8811 18.08C13.6611 18.08 13.4945 18.0233 13.3811 17.91C13.2745 17.79 13.1745 17.5933 13.0811 17.32L12.6311 16.09C12.5445 15.85 12.4311 15.6667 12.2911 15.54C12.1578 15.4133 11.9545 15.35 11.6811 15.35H11.0211V18C10.8545 18.0333 10.6411 18.05 10.3811 18.05C10.1278 18.05 9.92113 18.0333 9.76113 18V11.22L9.83113 11.16C10.8845 11.1333 11.6311 11.12 12.0711 11.12C12.7845 11.12 13.3511 11.3 13.7711 11.66C14.1978 12.02 14.4111 12.54 14.4111 13.22ZM11.0211 12.1V14.35C11.5011 14.3367 11.8245 14.33 11.9911 14.33C12.7311 14.33 13.1011 13.96 13.1011 13.22C13.1011 12.48 12.7311 12.11 11.9911 12.11C11.5578 12.11 11.2345 12.1067 11.0211 12.1ZM17.0756 16.37L17.0656 16.96C17.3456 16.9467 17.5756 16.94 17.7556 16.94H20.2356C20.2356 17.1467 20.2289 17.3033 20.2156 17.41C20.1423 17.8167 19.8689 18.02 19.3956 18.02H16.5456C16.3189 18.02 16.1389 17.9533 16.0056 17.82C15.8789 17.68 15.8156 17.49 15.8156 17.25V11.24L15.8856 11.17H20.0156C20.0489 11.33 20.0656 11.4967 20.0656 11.67C20.0656 11.8367 20.0323 12.0267 19.9656 12.24H17.0656L17.0756 12.92V14.04C17.2356 14.0333 17.4489 14.03 17.7156 14.03H19.4556C19.5023 14.19 19.5256 14.3667 19.5256 14.56C19.5256 14.7467 19.5023 14.92 19.4556 15.08H17.7156C17.4489 15.08 17.2356 15.0767 17.0756 15.07V16.37ZM22.7689 16.37L22.7589 16.96C23.0389 16.9467 23.2689 16.94 23.4489 16.94H25.9289C25.9289 17.1467 25.9223 17.3033 25.9089 17.41C25.8356 17.8167 25.5623 18.02 25.0889 18.02H22.2389C22.0123 18.02 21.8323 17.9533 21.6989 17.82C21.5723 17.68 21.5089 17.49 21.5089 17.25V11.24L21.5789 11.17H25.7089C25.7423 11.33 25.7589 11.4967 25.7589 11.67C25.7589 11.8367 25.7256 12.0267 25.6589 12.24H22.7589L22.7689 12.92V14.04C22.9289 14.0333 23.1423 14.03 23.4089 14.03H25.1489C25.1956 14.19 25.2189 14.3667 25.2189 14.56C25.2189 14.7467 25.1956 14.92 25.1489 15.08H23.4089C23.1423 15.08 22.9289 15.0767 22.7689 15.07V16.37Z" fill="black"/>
</svg>
