<svg width="78" height="26" viewBox="0 0 78 26" fill="none" xmlns="http://www.w3.org/2000/svg">
<path d="M4.6917 4.3L4.7277 7.972V10.78H13.0797C13.2237 11.356 13.2957 11.992 13.2957 12.688C13.2957 13.36 13.2237 13.984 13.0797 14.56H4.7277V25C4.1037 25.12 3.3357 25.18 2.4237 25.18C1.5357 25.18 0.779703 25.12 0.155703 25V0.627998L0.407703 0.411999H15.0957C15.2397 0.915998 15.3117 1.516 15.3117 2.212C15.3117 3.628 14.4717 4.336 12.7917 4.336H7.8237C6.3597 4.336 5.3157 4.324 4.6917 4.3ZM35.8801 7.792C35.8801 9.4 35.4361 10.792 34.5481 11.968C33.6841 13.12 32.6161 13.924 31.3441 14.38C32.5201 14.788 33.3961 15.832 33.9721 17.512L35.3761 21.292C35.8321 22.516 36.3961 23.38 37.0681 23.884C36.3961 24.82 35.3641 25.288 33.9721 25.288C33.1801 25.288 32.5801 25.084 32.1721 24.676C31.7881 24.244 31.4281 23.536 31.0921 22.552L29.4721 18.124C29.1601 17.26 28.7521 16.6 28.2481 16.144C27.7681 15.688 27.0361 15.46 26.0521 15.46H23.6761V25C23.0761 25.12 22.3081 25.18 21.3721 25.18C20.4601 25.18 19.7161 25.12 19.1401 25V0.591999L19.3921 0.375999C23.1841 0.279999 25.8721 0.231999 27.4561 0.231999C30.0241 0.231999 32.0641 0.879999 33.5761 2.176C35.1121 3.472 35.8801 5.344 35.8801 7.792ZM23.6761 3.76V11.86C25.4041 11.812 26.5681 11.788 27.1681 11.788C29.8321 11.788 31.1641 10.456 31.1641 7.792C31.1641 5.128 29.8321 3.796 27.1681 3.796C25.6081 3.796 24.4441 3.784 23.6761 3.76ZM45.4721 19.132L45.4361 21.256C46.4441 21.208 47.2721 21.184 47.9201 21.184H56.8481C56.8481 21.928 56.8241 22.492 56.7761 22.876C56.5121 24.34 55.5281 25.072 53.8241 25.072H43.5641C42.7481 25.072 42.1001 24.832 41.6201 24.352C41.1641 23.848 40.9361 23.164 40.9361 22.3V0.663998L41.1881 0.411999H56.0561C56.1761 0.987999 56.2361 1.588 56.2361 2.212C56.2361 2.812 56.1161 3.496 55.8761 4.264H45.4361L45.4721 6.712V10.744C46.0481 10.72 46.8161 10.708 47.7761 10.708H54.0401C54.2081 11.284 54.2921 11.92 54.2921 12.616C54.2921 13.288 54.2081 13.912 54.0401 14.488H47.7761C46.8161 14.488 46.0481 14.476 45.4721 14.452V19.132ZM65.9682 19.132L65.9322 21.256C66.9402 21.208 67.7682 21.184 68.4162 21.184H77.3442C77.3442 21.928 77.3202 22.492 77.2722 22.876C77.0082 24.34 76.0242 25.072 74.3202 25.072H64.0602C63.2442 25.072 62.5962 24.832 62.1162 24.352C61.6602 23.848 61.4322 23.164 61.4322 22.3V0.663998L61.6842 0.411999H76.5522C76.6722 0.987999 76.7322 1.588 76.7322 2.212C76.7322 2.812 76.6122 3.496 76.3722 4.264H65.9322L65.9682 6.712V10.744C66.5442 10.72 67.3122 10.708 68.2722 10.708H74.5362C74.7042 11.284 74.7882 11.92 74.7882 12.616C74.7882 13.288 74.7042 13.912 74.5362 14.488H68.2722C67.3122 14.488 66.5442 14.476 65.9682 14.452V19.132Z" fill="black"/>
</svg>
