<?xml version="1.0" ?><!DOCTYPE svg  PUBLIC '-//W3C//DTD SVG 1.1//EN'  'http://www.w3.org/Graphics/SVG/1.1/DTD/svg11.dtd'><svg id="Camada_1" style="enable-background:new 0 0 100 100;" version="1.1" viewBox="0 0 100 100" xml:space="preserve" xmlns="http://www.w3.org/2000/svg" xmlns:xlink="http://www.w3.org/1999/xlink"><path d="M71.3,26.8h-7.2c-0.8,0-1.5,0.7-1.5,1.5s0.7,1.5,1.5,1.5h3.6l-7.3,7.3c-2.9-2.4-6.5-3.8-10.6-3.8c-4,0-7.7,1.4-10.6,3.8  l-1.5-1.5l2.5-2.5c0.6-0.6,0.6-1.5,0-2.1c-0.6-0.6-1.5-0.6-2.1,0l-2.5,2.5L32.3,30h3.4c0.8,0,1.5-0.7,1.5-1.5S36.5,27,35.7,27h-7  c-0.2,0-0.4,0-0.5,0.1c0,0,0,0,0,0c-0.4,0.2-0.7,0.4-0.8,0.8c0,0,0,0,0,0c-0.1,0.2-0.1,0.4-0.1,0.5v7c0,0.8,0.7,1.5,1.5,1.5  s1.5-0.7,1.5-1.5v-3.4l3.5,3.5l-2.5,2.5c-0.6,0.6-0.6,1.5,0,2.1c0.3,0.3,0.7,0.4,1.1,0.4s0.8-0.1,1.1-0.4l2.5-2.5l1.5,1.5  c-2.4,2.9-3.8,6.5-3.8,10.6c0,8.6,6.6,15.7,15,16.4v7.2h-3.5c-0.8,0-1.5,0.7-1.5,1.5s0.7,1.5,1.5,1.5h3.5v3.4c0,0.8,0.7,1.5,1.5,1.5  s1.5-0.7,1.5-1.5v-3.4h3.5c0.8,0,1.5-0.7,1.5-1.5s-0.7-1.5-1.5-1.5h-3.5v-7.2c8.4-0.8,15-7.8,15-16.4c0-4-1.4-7.7-3.8-10.6l7.3-7.3  v3.6c0,0.8,0.7,1.5,1.5,1.5s1.5-0.7,1.5-1.5v-7.2C72.8,27.5,72.2,26.8,71.3,26.8z M49.9,63.2c-7.4,0-13.5-6.1-13.5-13.5  s6.1-13.5,13.5-13.5s13.5,6.1,13.5,13.5S57.3,63.2,49.9,63.2z"/><path d="M54.9,46h-9.8c-0.8,0-1.5,0.7-1.5,1.5s0.7,1.5,1.5,1.5h9.8c0.8,0,1.5-0.7,1.5-1.5S55.7,46,54.9,46z"/><path d="M54.9,51h-9.8c-0.8,0-1.5,0.7-1.5,1.5s0.7,1.5,1.5,1.5h9.8c0.8,0,1.5-0.7,1.5-1.5S55.7,51,54.9,51z"/></svg>