<svg width="408" height="618" viewBox="0 0 408 618" fill="none" xmlns="http://www.w3.org/2000/svg">
<g filter="url(#filter0_d)">
<path d="M402.832 419.693C405.354 491.665 387.067 609.262 156.904 609.262C115.916 601.765 26.6188 588.377 10.8543 503.232C-20.1805 335.61 81.541 347.4 97.011 238.157C104.339 186.412 91.1799 88.7517 91.1799 88.7517L56.0101 2L156.904 64.654L255.043 143.373C321.255 204.421 400.309 347.722 402.832 419.693Z" fill="#DBF0E4"/>
<path d="M402.832 419.693C405.354 491.665 387.067 609.262 156.904 609.262C115.916 601.765 26.6188 588.377 10.8543 503.232C-20.1805 335.61 81.541 347.4 97.011 238.157C104.339 186.412 91.1799 88.7517 91.1799 88.7517L56.0101 2L156.904 64.654L255.043 143.373C321.255 204.421 400.309 347.722 402.832 419.693Z" stroke="#AEAEAE"/>
</g>
<defs>
<filter id="filter0_d" x="0.5" y="0.765625" width="407.03" height="616.996" filterUnits="userSpaceOnUse" color-interpolation-filters="sRGB">
<feFlood flood-opacity="0" result="BackgroundImageFix"/>
<feColorMatrix in="SourceAlpha" type="matrix" values="0 0 0 0 0 0 0 0 0 0 0 0 0 0 0 0 0 0 127 0"/>
<feOffset dy="4"/>
<feGaussianBlur stdDeviation="2"/>
<feColorMatrix type="matrix" values="0 0 0 0 0 0 0 0 0 0 0 0 0 0 0 0 0 0 0.25 0"/>
<feBlend mode="normal" in2="BackgroundImageFix" result="effect1_dropShadow"/>
<feBlend mode="normal" in="SourceGraphic" in2="effect1_dropShadow" result="shape"/>
</filter>
</defs>
</svg>
