<svg width="22" height="19" viewBox="0 0 22 19" fill="none" xmlns="http://www.w3.org/2000/svg">
<path d="M3.4185 5.264H3.6825C3.73583 5.424 3.7625 5.56533 3.7625 5.688C3.7625 5.81067 3.7545 5.904 3.7385 5.968C3.42917 6.016 3.1785 6.04 2.9865 6.04C2.4105 6.04 2.1225 5.728 2.1225 5.104V0.168L2.1705 0.112H2.5545C2.75183 0.112 2.8905 0.16 2.9705 0.256C3.0505 0.346666 3.0905 0.504 3.0905 0.728V4.904C3.0905 5.144 3.19983 5.264 3.4185 5.264ZM5.66475 2.808V6C5.51542 6.02667 5.35275 6.04 5.17675 6.04C5.00075 6.04 4.83275 6.02667 4.67275 6V3.176C4.67275 2.888 4.55275 2.744 4.31275 2.744H4.21675C4.19008 2.65333 4.17675 2.53867 4.17675 2.4C4.17675 2.26133 4.19008 2.14133 4.21675 2.04C4.40875 2.01867 4.60342 2.008 4.80075 2.008H4.92875C5.15808 2.008 5.33675 2.08 5.46475 2.224C5.59808 2.368 5.66475 2.56267 5.66475 2.808ZM4.50475 1.312C4.45142 1.18933 4.42475 1.05867 4.42475 0.92C4.42475 0.776 4.45142 0.642666 4.50475 0.52C4.64342 0.445333 4.81408 0.408 5.01675 0.408C5.22475 0.408 5.39008 0.445333 5.51275 0.52C5.56608 0.642666 5.59275 0.776 5.59275 0.92C5.59275 1.05867 5.56608 1.18933 5.51275 1.312C5.39008 1.38667 5.21675 1.424 4.99275 1.424C4.77408 1.424 4.61142 1.38667 4.50475 1.312ZM9.57856 4.472L9.81856 5.104C9.9359 5.44 10.0639 5.656 10.2026 5.752C10.0212 5.95467 9.7999 6.056 9.53856 6.056C9.3839 6.056 9.26656 6.01867 9.18656 5.944C9.1119 5.86933 9.0399 5.74133 8.97056 5.56L8.68256 4.808C8.6079 4.616 8.5279 4.488 8.44256 4.424C8.36256 4.36 8.2639 4.328 8.14656 4.328C8.02923 4.328 7.90123 4.33333 7.76256 4.344V6C7.61323 6.02667 7.45323 6.04 7.28256 6.04C7.11723 6.04 6.95456 6.02667 6.79456 6V0.168L6.85056 0.112H7.22656C7.42923 0.112 7.5679 0.16 7.64256 0.256C7.72256 0.346666 7.76256 0.504 7.76256 0.728V3.52L7.97856 3.512C8.05856 3.512 8.1279 3.46933 8.18656 3.384L8.77056 2.4C8.9199 2.13867 9.11723 2.008 9.36256 2.008C9.6079 2.008 9.7919 2.01067 9.91456 2.016L9.96256 2.08L9.18656 3.392C9.09056 3.55733 8.9839 3.68 8.86656 3.76C9.1919 3.86133 9.42923 4.09867 9.57856 4.472ZM13.8727 4.336H11.6327C11.6487 4.65067 11.718 4.896 11.8407 5.072C11.9687 5.24267 12.19 5.328 12.5047 5.328C12.8194 5.328 13.1687 5.23467 13.5527 5.048C13.702 5.192 13.798 5.39467 13.8407 5.656C13.414 5.96 12.8994 6.112 12.2967 6.112C11.6994 6.112 11.27 5.91733 11.0087 5.528C10.7474 5.13867 10.6167 4.63467 10.6167 4.016C10.6167 3.39733 10.7607 2.89333 11.0487 2.504C11.3367 2.11467 11.7474 1.92 12.2807 1.92C12.8194 1.92 13.2327 2.08267 13.5207 2.408C13.8087 2.728 13.9527 3.13333 13.9527 3.624C13.9527 3.86933 13.926 4.10667 13.8727 4.336ZM12.3287 2.64C11.8914 2.64 11.6567 2.97067 11.6247 3.632H13.0167V3.536C13.0167 3.26933 12.9607 3.05333 12.8487 2.888C12.7367 2.72267 12.5634 2.64 12.3287 2.64ZM16.1529 5.264H16.4169C16.4702 5.424 16.4969 5.56533 16.4969 5.688C16.4969 5.81067 16.4889 5.904 16.4729 5.968C16.1635 6.016 15.9129 6.04 15.7209 6.04C15.1449 6.04 14.8569 5.728 14.8569 5.104V0.168L14.9049 0.112H15.2889C15.4862 0.112 15.6249 0.16 15.7049 0.256C15.7849 0.346666 15.8249 0.504 15.8249 0.728V4.904C15.8249 5.144 15.9342 5.264 16.1529 5.264ZM20.3694 2.128L19.3374 5.88C19.1614 6.52533 18.94 6.99733 18.6734 7.296C18.412 7.6 18.0174 7.752 17.4894 7.752C17.2014 7.752 16.9187 7.704 16.6414 7.608C16.6414 7.58133 16.6414 7.536 16.6414 7.472C16.6414 7.41333 16.6574 7.32 16.6894 7.192C16.7267 7.06933 16.78 6.97067 16.8494 6.896C17.0734 6.97067 17.2947 7.008 17.5134 7.008C17.9294 7.008 18.2174 6.72267 18.3774 6.152L18.4094 6.048C18.2174 6.04267 18.0627 6.00533 17.9454 5.936C17.8334 5.86667 17.7534 5.74933 17.7054 5.584L16.7054 2.112C16.9187 2.016 17.1214 1.968 17.3134 1.968C17.564 1.968 17.7267 2.112 17.8014 2.4L18.2734 4.128C18.2894 4.176 18.3747 4.552 18.5294 5.256C18.5347 5.29333 18.5587 5.312 18.6014 5.312L19.4094 2.032C19.532 2.00533 19.6814 1.992 19.8574 1.992C20.0334 1.992 20.1934 2.016 20.3374 2.064L20.3694 2.128ZM1.7477 12.25L1.7577 13.27V14.05H4.0777C4.1177 14.21 4.1377 14.3867 4.1377 14.58C4.1377 14.7667 4.1177 14.94 4.0777 15.1H1.7577V18C1.58436 18.0333 1.37103 18.05 1.1177 18.05C0.871029 18.05 0.661029 18.0333 0.487695 18V11.23L0.557695 11.17H4.6377C4.6777 11.31 4.6977 11.4767 4.6977 11.67C4.6977 12.0633 4.46436 12.26 3.9977 12.26H2.6177C2.21103 12.26 1.92103 12.2567 1.7477 12.25ZM10.4111 13.22C10.4111 13.6667 10.2878 14.0533 10.0411 14.38C9.80113 14.7 9.50447 14.9233 9.15113 15.05C9.4778 15.1633 9.72113 15.4533 9.88113 15.92L10.2711 16.97C10.3978 17.31 10.5545 17.55 10.7411 17.69C10.5545 17.95 10.2678 18.08 9.88113 18.08C9.66113 18.08 9.49447 18.0233 9.38113 17.91C9.27447 17.79 9.17447 17.5933 9.08113 17.32L8.63113 16.09C8.54447 15.85 8.43113 15.6667 8.29113 15.54C8.1578 15.4133 7.95447 15.35 7.68113 15.35H7.02113V18C6.85447 18.0333 6.64113 18.05 6.38113 18.05C6.1278 18.05 5.92113 18.0333 5.76113 18V11.22L5.83113 11.16C6.88447 11.1333 7.63113 11.12 8.07113 11.12C8.78447 11.12 9.35113 11.3 9.77113 11.66C10.1978 12.02 10.4111 12.54 10.4111 13.22ZM7.02113 12.1V14.35C7.50113 14.3367 7.82447 14.33 7.99113 14.33C8.73113 14.33 9.10113 13.96 9.10113 13.22C9.10113 12.48 8.73113 12.11 7.99113 12.11C7.5578 12.11 7.23447 12.1067 7.02113 12.1ZM13.0756 16.37L13.0656 16.96C13.3456 16.9467 13.5756 16.94 13.7556 16.94H16.2356C16.2356 17.1467 16.2289 17.3033 16.2156 17.41C16.1423 17.8167 15.8689 18.02 15.3956 18.02H12.5456C12.3189 18.02 12.1389 17.9533 12.0056 17.82C11.8789 17.68 11.8156 17.49 11.8156 17.25V11.24L11.8856 11.17H16.0156C16.0489 11.33 16.0656 11.4967 16.0656 11.67C16.0656 11.8367 16.0323 12.0267 15.9656 12.24H13.0656L13.0756 12.92V14.04C13.2356 14.0333 13.4489 14.03 13.7156 14.03H15.4556C15.5023 14.19 15.5256 14.3667 15.5256 14.56C15.5256 14.7467 15.5023 14.92 15.4556 15.08H13.7156C13.4489 15.08 13.2356 15.0767 13.0756 15.07V16.37ZM18.7689 16.37L18.7589 16.96C19.0389 16.9467 19.2689 16.94 19.4489 16.94H21.9289C21.9289 17.1467 21.9223 17.3033 21.9089 17.41C21.8356 17.8167 21.5623 18.02 21.0889 18.02H18.2389C18.0123 18.02 17.8323 17.9533 17.6989 17.82C17.5723 17.68 17.5089 17.49 17.5089 17.25V11.24L17.5789 11.17H21.7089C21.7423 11.33 21.7589 11.4967 21.7589 11.67C21.7589 11.8367 21.7256 12.0267 21.6589 12.24H18.7589L18.7689 12.92V14.04C18.9289 14.0333 19.1423 14.03 19.4089 14.03H21.1489C21.1956 14.19 21.2189 14.3667 21.2189 14.56C21.2189 14.7467 21.1956 14.92 21.1489 15.08H19.4089C19.1423 15.08 18.9289 15.0767 18.7689 15.07V16.37Z" fill="black"/>
</svg>
