<svg width="69.6" height="16.8" viewBox="0 0 58 14" fill="none" xmlns="http://www.w3.org/2000/svg">
<path d="M4.97331 0.366C6.24531 0.366 7.26531 0.72 8.03331 1.428C8.81331 2.124 9.20331 3.138 9.20331 4.47C9.20331 5.79 8.81331 6.81 8.03331 7.53C7.26531 8.238 6.24531 8.592 4.97331 8.592H3.24531V12.75C2.94531 12.81 2.56131 12.84 2.09331 12.84C1.62531 12.84 1.24731 12.81 0.95931 12.75V0.545999L1.08531 0.438C2.98131 0.39 4.27731 0.366 4.97331 0.366ZM3.24531 2.148V6.846C4.06131 6.822 4.58931 6.81 4.82931 6.81C5.57331 6.81 6.09531 6.582 6.39531 6.126C6.69531 5.658 6.84531 5.112 6.84531 4.488C6.84531 3.852 6.69531 3.306 6.39531 2.85C6.09531 2.394 5.58531 2.166 4.86531 2.166C4.15731 2.166 3.61731 2.16 3.24531 2.148ZM20.5104 0.455999V8.34C20.5104 9.828 20.0964 10.98 19.2684 11.796C18.4404 12.6 17.2944 13.002 15.8304 13.002C14.3784 13.002 13.2384 12.6 12.4104 11.796C11.5824 10.98 11.1684 9.828 11.1684 8.34V0.473999L11.2764 0.366H12.1404C12.5964 0.366 12.9264 0.485999 13.1304 0.725999C13.3464 0.953999 13.4544 1.32 13.4544 1.824V8.358C13.4544 10.23 14.2464 11.166 15.8304 11.166C17.4144 11.166 18.2064 10.23 18.2064 8.358V0.455999C18.5064 0.396 18.8904 0.366 19.3584 0.366C19.8264 0.366 20.2104 0.396 20.5104 0.455999ZM23.5326 0.438C25.3326 0.39 26.6286 0.366 27.4206 0.366C28.7286 0.366 29.7306 0.648 30.4266 1.212C31.1226 1.764 31.4706 2.568 31.4706 3.624C31.4706 4.188 31.3146 4.698 31.0026 5.154C30.7026 5.61 30.3066 5.94 29.8146 6.144C30.4506 6.336 30.9786 6.726 31.3986 7.314C31.8306 7.89 32.0466 8.544 32.0466 9.276C32.0466 10.392 31.6746 11.268 30.9306 11.904C30.1866 12.528 29.1006 12.84 27.6726 12.84C26.8086 12.84 25.4286 12.816 23.5326 12.768L23.4066 12.66V0.545999L23.5326 0.438ZM25.6746 11.166L27.6006 11.148C28.3806 11.148 28.9266 10.95 29.2386 10.554C29.5626 10.158 29.7246 9.696 29.7246 9.168C29.7246 8.64 29.5506 8.172 29.2026 7.764C28.8666 7.356 28.3026 7.152 27.5106 7.152H25.6746V11.166ZM25.6746 2.04V5.442H27.3306C28.0146 5.442 28.4946 5.28 28.7706 4.956C29.0586 4.62 29.2026 4.218 29.2026 3.75C29.2026 2.622 28.5846 2.058 27.3486 2.058C26.5806 2.058 26.0226 2.052 25.6746 2.04ZM38.2813 10.806H41.6833C41.6833 11.202 41.6653 11.49 41.6293 11.67C41.4973 12.414 40.9993 12.786 40.1353 12.786H35.6893C35.2813 12.786 34.9573 12.666 34.7173 12.426C34.4773 12.174 34.3573 11.832 34.3573 11.4V0.473999L34.4833 0.366H35.3293C35.7853 0.366 36.1213 0.48 36.3373 0.707999C36.5533 0.935999 36.6613 1.308 36.6613 1.824V10.86C37.2373 10.824 37.7773 10.806 38.2813 10.806ZM43.7106 12.75V0.455999C43.9986 0.396 44.3766 0.366 44.8446 0.366C45.3126 0.366 45.6966 0.396 45.9966 0.455999V12.75C45.6966 12.81 45.3126 12.84 44.8446 12.84C44.3766 12.84 43.9986 12.81 43.7106 12.75ZM55.6758 4.956C55.6758 4.908 55.6758 4.86 55.6758 4.812C55.6758 4.056 55.4958 3.408 55.1358 2.868C54.7878 2.316 54.1998 2.04 53.3718 2.04C51.6438 2.04 50.7798 3.582 50.7798 6.666C50.7798 8.058 51.0198 9.132 51.4998 9.888C51.9918 10.632 52.6998 11.004 53.6238 11.004C54.5478 11.004 55.5798 10.56 56.7198 9.672C56.9598 9.84 57.1878 10.068 57.4038 10.356C57.6198 10.632 57.7578 10.896 57.8178 11.148C57.2778 11.688 56.5938 12.132 55.7658 12.48C54.9378 12.828 54.0798 13.002 53.1918 13.002C52.3038 13.002 51.5418 12.822 50.9058 12.462C50.2698 12.102 49.7718 11.61 49.4118 10.986C48.7158 9.798 48.3678 8.352 48.3678 6.648C48.3678 4.524 48.8418 2.922 49.7898 1.842C50.7498 0.75 51.9258 0.204 53.3178 0.204C54.7098 0.204 55.8138 0.558 56.6298 1.266C57.4578 1.962 57.8718 2.808 57.8718 3.804C57.8718 4.656 57.4398 5.082 56.5758 5.082C56.2638 5.082 55.9638 5.04 55.6758 4.956Z" fill="black"/>
</svg>
